<svg version="1.1" id="Layer_1" xmlns="http://www.w3.org/2000/svg" xmlns:xlink="http://www.w3.org/1999/xlink" x="0px" y="0px" width="170px" height="170px" viewBox="-69 -69 170 170" enable-background="new -69 -69 170 170" xml:space="preserve"><circle cx="16" cy="16" r="85" fill="#FFF"/><g fill="#00687C"><path d="M.662 21.268c.386 0 .773-.146 1.071-.438l40.321-39.48 5.789 5.793a1.534 1.534 0 0 0 2.171-2.168l-6.854-6.851v-.001l-.003-.003-1.541-1.543c-1.314-1.311-2.71-1.977-4.152-1.977h-.014c-1.438.004-2.83.668-4.139 1.977L11.845-1.956A1.532 1.532 0 0 0 12.93.662c.392 0 .785-.151 1.084-.449l21.469-21.469c1.445-1.444 2.519-1.444 3.967 0l.438.438L-.41 18.639a1.532 1.532 0 0 0 1.072 2.629zM-11.605 49.73a6.14 6.14 0 0 0 6.133-6.132c0-3.383-2.751-6.135-6.133-6.135s-6.133 2.752-6.133 6.135c0 1.135.328 2.185.867 3.095l-8.061 8.061c1.991-6.191 4.956-16.191 6.897-26.297 7.511.918 11.91-1.204 14.004-2.721l6.676 6.677a1.53 1.53 0 0 0 2.169 0c.6-.598.6-1.566 0-2.167l-7.668-7.668a1.535 1.535 0 0 0-2.169 0c-.999 1.002-4.958 4.146-13.999 2.64a1.523 1.523 0 0 0-1.76 1.237c-3.007 16.54-9.072 33.321-9.132 33.487-.027.075-.02.148-.035.222-.022.115-.053.225-.051.342.001.099.034.191.055.287.022.096.033.19.073.283.046.109.122.196.192.292.043.06.067.126.122.183.005.006.016.006.022.014.072.07.17.115.26.172.084.056.163.12.254.157.007.003.014.011.022.014a1.485 1.485 0 0 0 1.05-.01c.049-.02.093-.045.14-.066a1.51 1.51 0 0 0 .338-.228c.025-.022.058-.031.082-.054l12.686-12.69c.914.542 1.964.87 3.099.87zm0-9.197a3.068 3.068 0 0 1 3.067 3.065c0 1.69-1.376 3.066-3.067 3.066s-3.067-1.376-3.067-3.066a3.067 3.067 0 0 1 3.067-3.065z"/><path d="M59.995-24.969l-3.065-3.067c-2.617-2.62-7.216-2.621-9.844.008l-2.279 2.311a1.527 1.527 0 0 0 .017 2.167 1.531 1.531 0 0 0 2.167-.014l2.271-2.304c.683-.682 1.682-1.074 2.74-1.074h.025c1.059.005 2.056.397 2.734 1.074l3.066 3.067c1.466 1.464 1.466 4.035-.017 5.516L7.244 34.845c-1.2 1.202-4.861 5.722-3.71 15.184-7.464 1.432-16.317 3.678-21.582 5.489a1.534 1.534 0 0 0 1 2.9c5.482-1.887 14.983-4.263 22.584-5.644a1.534 1.534 0 0 0 1.238-1.764c-1.507-9.032 1.64-12.996 2.656-14.013l50.564-52.132c1.289-1.287 1.999-3.029 2.005-4.905.007-1.882-.706-3.633-2.004-4.929z"/></g></svg>
