<svg version="1.1" id="Layer_1" xmlns="http://www.w3.org/2000/svg" xmlns:xlink="http://www.w3.org/1999/xlink" x="0px" y="0px" width="170px" height="170px" viewBox="-69 -69 170 170" enable-background="new -69 -69 170 170" xml:space="preserve"><circle cx="16" cy="16" r="85" fill="#FFF"/><g fill="#00687C"><path d="M35.934.667h-3.065a1.533 1.533 0 0 0 0 3.067h3.065a1.534 1.534 0 0 0 0-3.067zM35.934 6.8h-3.065a1.533 1.533 0 0 0 0 3.067h3.065a1.534 1.534 0 0 0 0-3.067zM35.934-5.466h-3.065a1.533 1.533 0 0 0 0 3.067h3.065a1.535 1.535 0 0 0 0-3.067zM35.934 43.6h-3.065a1.533 1.533 0 0 0 0 3.066h3.065a1.533 1.533 0 0 0 0-3.066zM2.2-5.466H-7c-.847 0-1.533.688-1.533 1.533v21.466c0 .848.687 1.533 1.533 1.533h9.2c.846 0 1.533-.686 1.533-1.533V-3.932c0-.847-.687-1.534-1.533-1.534zM.666 16h-6.133V-2.399H.666V16zM2.2 43.6H-7a1.534 1.534 0 0 0 0 3.066h9.2a1.533 1.533 0 0 0 0-3.066zM2.2 49.734H-7A1.534 1.534 0 0 0-7 52.8h9.2c.846 0 1.533-.689 1.533-1.533 0-.845-.687-1.533-1.533-1.533zM35.934 49.734h-3.065a1.533 1.533 0 0 0 0 3.066h3.065c.846 0 1.533-.689 1.533-1.533 0-.845-.688-1.533-1.533-1.533zM54.335 49.734H48.2c-.845 0-1.535.688-1.535 1.533 0 .844.69 1.533 1.535 1.533h6.135c.846 0 1.533-.689 1.533-1.533 0-.845-.687-1.533-1.533-1.533zM22.132-3.932c0-.847-.685-1.534-1.533-1.534h-6.132c-.847 0-1.533.688-1.533 1.534v21.465c0 .848.687 1.533 1.533 1.533h6.132c.849 0 1.533-.686 1.533-1.533V-3.932zM19.066 16H16V-2.399h3.066V16zM54.335 43.6H48.2c-.845 0-1.535.688-1.535 1.533 0 .848.69 1.533 1.535 1.533h6.135a1.533 1.533 0 0 0 0-3.066zM20.599 49.734h-6.132a1.534 1.534 0 0 0 0 3.066h6.132a1.533 1.533 0 0 0 0-3.066zM48.2 25.201c.846 0 1.533-.688 1.533-1.535V8.334a1.535 1.535 0 0 0-3.068 0v15.332c0 .848.69 1.535 1.535 1.535zM55.868 8.334a1.533 1.533 0 0 0-3.065 0v15.332a1.533 1.533 0 1 0 3.065 0V8.334z"/><path d="M57.401-17.733H48.2c-.845 0-1.535.688-1.535 1.533 0 .847.69 1.535 1.535 1.535h9.201c.842 0 1.532.688 1.532 1.533v70.535c0 .842-.69 1.531-1.532 1.531H43.599v-64.4H52.8c.845 0 1.535-.687 1.535-1.533s-.69-1.533-1.535-1.533h-9.201v-13.801c0-2.579-2.021-4.599-4.599-4.599h-9.2a4.605 4.605 0 0 0-4.6 4.599v81.267H9.867v-79.732h10.731a1.533 1.533 0 1 0 0-3.068H9.867v-1.533c0-2.579-2.021-4.6-4.601-4.6h-15.333a4.605 4.605 0 0 0-4.6 4.6V-11.6h-7.668a1.534 1.534 0 0 0 0 3.067h7.668v67.466H-25.4a1.535 1.535 0 0 1-1.533-1.531V-16.2c0-.844.688-1.533 1.533-1.533h6.133a1.533 1.533 0 0 0 0-3.066H-25.4A4.604 4.604 0 0 0-30-16.2v73.603A4.603 4.603 0 0 0-25.4 62h82.801A4.603 4.603 0 0 0 62 57.402v-70.535c0-2.536-2.063-4.6-4.599-4.6zM6.8 58.934h-18.4v-76.667H2.2a1.534 1.534 0 0 0 0-3.066h-13.801V-25.4c0-.86.674-1.533 1.533-1.533H5.267c.874 0 1.533.658 1.533 1.533v84.334zm33.733 0H28.267v-73.599h7.667a1.535 1.535 0 0 0 0-3.068h-7.667v-4.601c0-.859.674-1.533 1.533-1.533H39c.876 0 1.533.66 1.533 1.533v81.268z"/><path d="M-19.267 43.6h-3.067a1.533 1.533 0 1 0 0 3.066h3.067a1.533 1.533 0 1 0 0-3.066zM-19.267 49.734h-3.067c-.846 0-1.533.688-1.533 1.533 0 .844.687 1.533 1.533 1.533h3.067a1.533 1.533 0 0 0 0-3.066zM20.599 43.6h-6.132a1.534 1.534 0 0 0 0 3.066h6.132a1.533 1.533 0 1 0 0-3.066zM-19.267 6.8h-3.067a1.535 1.535 0 0 0 0 3.067h3.067a1.533 1.533 0 0 0 0-3.067zM-19.267 12.933h-3.067a1.535 1.535 0 0 0 0 3.067h3.067a1.533 1.533 0 0 0 0-3.067z"/></g></svg>
