<svg version="1.1" id="Capa_1" xmlns="http://www.w3.org/2000/svg" xmlns:xlink="http://www.w3.org/1999/xlink" x="0px" y="0px" width="170px" height="170px" viewBox="492 492 170 170" enable-background="new 492 492 170 170" xml:space="preserve"><circle cx="577" cy="577.001" r="85" fill="#FFF"/><path fill="#00687C" d="M621.801 619.373l-4.115-1.414-17.722-6.09a6.508 6.508 0 0 0-5.157.403 41.236 41.236 0 0 1-19.15 4.753h-.066c-22.338 0-40.799-18.164-41.152-40.49-.179-11.251 4.101-21.825 12.05-29.774 3.879-3.878 8.368-6.89 13.345-8.951 4.974-2.06 10.274-3.104 15.757-3.104a40.465 40.465 0 0 1 16.423 3.446 41.338 41.338 0 0 1 12.887 8.915 41.352 41.352 0 0 1 8.687 13.046 40.567 40.567 0 0 1 3.165 15.818c-.012 6.67-1.654 13.292-4.753 19.149a6.527 6.527 0 0 0-.403 5.158l4.281 11.062.918 2.727h.002a1.727 1.727 0 0 0 3.382-.482 1.68 1.68 0 0 0-.069-.479l.003-.001-.011-.029a.505.505 0 0 0-.006-.02l-.934-2.484-4.32-11.41a3.08 3.08 0 0 1 .191-2.438 44.687 44.687 0 0 0 5.15-20.749c.038-24.24-19.641-44.273-43.866-44.657a44.505 44.505 0 0 0-.73-.006c-11.918 0-23.086 4.621-31.526 13.061-8.612 8.612-13.249 20.067-13.055 32.256.383 24.203 20.387 43.868 44.585 43.868h.072a44.688 44.688 0 0 0 20.749-5.151 3.074 3.074 0 0 1 2.438-.19l21.969 7.549.002-.005c.147.042.303.066.463.066.948 0 1.717-.77 1.717-1.717a1.72 1.72 0 0 0-1.201-1.636z"/><path fill="#00687C" d="M575.093 596.619c-1.452 0-2.843 1.276-2.776 2.775.067 1.504 1.22 2.776 2.776 2.776 1.452 0 2.843-1.276 2.776-2.776-.067-1.503-1.22-2.775-2.776-2.775zM582.544 555.427c2.129 1.156 3.792 2.748 4.987 4.775 1.196 2.028 1.795 4.318 1.795 6.873 0 1.987-.325 3.721-.973 5.201-.65 1.481-1.471 2.789-2.464 3.923-.994 1.136-2.403 2.535-4.228 4.197l-1.095.974c-1.136 1.014-1.937 2.199-2.403 3.558a12.378 12.378 0 0 0-.699 4.045c0 .69-.224 1.269-.669 1.733-.447.467-1.014.699-1.703.699-.69 0-1.257-.232-1.703-.699-.447-.465-.669-1.043-.669-1.733 0-1.662.405-3.427 1.216-5.292.811-1.864 1.906-3.445 3.285-4.744l1.521-1.398c1.379-1.298 2.453-2.382 3.225-3.255.77-.871 1.408-1.925 1.915-3.163.507-1.237.761-2.666.761-4.288 0-1.582-.387-3.031-1.156-4.349-.771-1.317-1.865-2.362-3.284-3.133-1.42-.77-3.042-1.155-4.866-1.155-3.001 0-5.383.903-7.147 2.707-1.764 1.805-2.646 4.146-2.646 7.025 0 .69-.213 1.247-.639 1.673s-.984.639-1.673.639c-.69 0-1.257-.213-1.703-.639-.447-.426-.669-.983-.669-1.673 0-2.757.608-5.21 1.825-7.36 1.216-2.149 2.919-3.832 5.109-5.048 2.189-1.217 4.704-1.825 7.542-1.825 2.677-.002 5.079.576 7.208 1.732z"/></svg>
