<svg version="1.1" id="Capa_1" xmlns="http://www.w3.org/2000/svg" xmlns:xlink="http://www.w3.org/1999/xlink" x="0px" y="0px" width="32px" height="32px" viewBox="290 290 32 32" enable-background="new 290 290 32 32" xml:space="preserve"><g fill="#717E88"><path d="M309.432 298.565h-6.863a4.007 4.007 0 0 0-4.003 4.003v6.863a4.008 4.008 0 0 0 4.003 4.003h6.863a4.008 4.008 0 0 0 4.003-4.003v-6.863a4.008 4.008 0 0 0-4.003-4.003zM306 310.575a4.575 4.575 0 1 1 0-9.15 4.575 4.575 0 0 1 0 9.15zm4.918-8.884a.61.61 0 1 1 .001-1.22.61.61 0 0 1-.001 1.22z"/><path d="M306 303.141a2.862 2.862 0 0 0-2.859 2.859c0 1.576 1.283 2.859 2.859 2.859s2.859-1.283 2.859-2.859a2.862 2.862 0 0 0-2.859-2.859z"/><path d="M306 290c-8.836 0-16 7.164-16 16s7.164 16 16 16 16-7.164 16-16-7.164-16-16-16zm9.15 19.432a5.72 5.72 0 0 1-5.719 5.719h-6.863a5.72 5.72 0 0 1-5.719-5.719v-6.863a5.72 5.72 0 0 1 5.719-5.719h6.863a5.72 5.72 0 0 1 5.719 5.719v6.863z"/></g></svg>
