<?xml version="1.0" encoding="utf-8"?>
<!-- Generator: Adobe Illustrator 15.0.0, SVG Export Plug-In . SVG Version: 6.00 Build 0)  -->
<!DOCTYPE svg PUBLIC "-//W3C//DTD SVG 1.1//EN" "http://www.w3.org/Graphics/SVG/1.1/DTD/svg11.dtd">
<svg version="1.1" id="Layer_1" xmlns="http://www.w3.org/2000/svg" xmlns:xlink="http://www.w3.org/1999/xlink" x="0px" y="0px" width="28px" height="28px" viewBox="0 0 28 28" enable-background="new 0 0 28 28" xml:space="preserve">
<path fill="#f05921" d="M28,1c0,0.552-0.447,1-1,1H1C0.447,2,0,1.552,0,1l0,0c0-0.552,0.448-1,1-1h26C27.553,0,28,0.448,28,1L28,1z"
	/>
<path fill="#f05921" d="M28,14c0,0.553-0.447,1-1,1H1c-0.552,0-1-0.447-1-1l0,0c0-0.552,0.448-1,1-1h26C27.553,13,28,13.448,28,14
	L28,14z"/>
<path fill="#f05921" d="M28,27c0,0.553-0.447,1-1,1H1c-0.552,0-1-0.447-1-1l0,0c0-0.553,0.448-1,1-1h26C27.553,26,28,26.447,28,27
	L28,27z"/>
</svg>