<svg version="1.1" id="Capa_1" xmlns="http://www.w3.org/2000/svg" xmlns:xlink="http://www.w3.org/1999/xlink" x="0px" y="0px" width="32px" height="32px" viewBox="290 290 32 32" enable-background="new 290 290 32 32" xml:space="preserve"><path fill="#717E88" d="M306 290c-8.836 0-16 7.164-16 16s7.164 16 16 16 16-7.164 16-16-7.164-16-16-16zm1.473 20.846c-1.183 0-2.296-.654-2.678-1.396 0 0-.636 2.577-.771 3.075-.227.84-.665 1.68-1.071 2.344-.579.757-1.247.195-1.327-.494-.026-.768.001-1.677.192-2.504.211-.908 1.409-6.097 1.409-6.097s-.351-.714-.351-1.77c0-1.658.941-2.896 2.114-2.896.996 0 1.478.765 1.478 1.68 0 1.022-.639 2.553-.967 3.969-.275 1.188.583 2.154 1.729 2.154 2.076 0 3.475-2.723 3.475-5.948 0-2.452-1.617-4.287-4.56-4.287-3.324 0-5.395 2.531-5.395 5.357 0 .974.281 1.662.723 2.193.202.244.231.344.157.624l-.222.897c-.073.283-.298.384-.549.279-1.531-.639-2.244-2.351-2.244-4.273 0-3.178 2.625-6.989 7.832-6.989 4.183 0 6.936 3.091 6.936 6.409.002 4.393-2.388 7.673-5.91 7.673z"/></svg>
