<?xml version="1.0" encoding="utf-8"?>
<!-- Generator: Adobe Illustrator 15.0.0, SVG Export Plug-In . SVG Version: 6.00 Build 0)  -->
<!DOCTYPE svg PUBLIC "-//W3C//DTD SVG 1.1//EN" "http://www.w3.org/Graphics/SVG/1.1/DTD/svg11.dtd">
<svg version="1.1" id="Layer_1" xmlns="http://www.w3.org/2000/svg" xmlns:xlink="http://www.w3.org/1999/xlink" x="0px" y="0px"
	 width="16px" height="16px" viewBox="0 0 16 16" enable-background="new 0 0 16 16" xml:space="preserve">
<path fill="#717E88" d="M12.139,10.564c-0.521-0.515-1.172-0.515-1.688,0c-0.396,0.393-0.789,0.783-1.179,1.182
	c-0.104,0.109-0.194,0.133-0.323,0.061C8.691,11.666,8.42,11.555,8.175,11.4C7.03,10.682,6.072,9.756,5.223,8.715
	C4.801,8.197,4.426,7.643,4.164,7.02c-0.053-0.126-0.043-0.209,0.06-0.312c0.395-0.382,0.779-0.773,1.168-1.165
	C5.932,5,5.932,4.363,5.388,3.815C5.079,3.504,4.771,3.199,4.463,2.887c-0.318-0.318-0.634-0.64-0.956-0.955
	c-0.521-0.507-1.17-0.507-1.688,0.003C1.421,2.326,1.04,2.728,0.635,3.112C0.26,3.467,0.071,3.902,0.031,4.409
	c-0.062,0.826,0.14,1.605,0.425,2.365c0.584,1.572,1.473,2.968,2.551,4.25c1.433,1.719,3.215,3.112,5.227,4.09
	c0.917,0.443,1.864,0.785,2.896,0.843c0.71,0.039,1.327-0.14,1.821-0.692c0.338-0.379,0.72-0.724,1.078-1.084
	c0.529-0.539,0.533-1.188,0.006-1.72C13.404,11.826,12.771,11.195,12.139,10.564z M11.504,7.922l1.225-0.209
	c-0.191-1.119-0.725-2.15-1.528-2.952c-0.841-0.846-1.937-1.392-3.118-1.555l-0.173,1.23c0.915,0.126,1.763,0.549,2.414,1.204
	C10.943,6.26,11.356,7.057,11.504,7.922z M13.418,2.602c-1.396-1.404-3.214-2.311-5.175-2.581L8.071,1.252
	c1.694,0.234,3.265,1.018,4.471,2.229c1.153,1.147,1.919,2.625,2.192,4.229l1.224-0.21C15.64,5.644,14.752,3.932,13.418,2.602z"/>
</svg>
