<svg version="1.1" id="Layer_1" xmlns="http://www.w3.org/2000/svg" xmlns:xlink="http://www.w3.org/1999/xlink" x="0px" y="0px" width="170px" height="170px" viewBox="-69 -69 170 170" enable-background="new -69 -69 170 170" xml:space="preserve"><circle cx="16" cy="16.001" r="85" fill="#FFF"/><g fill="#00687C"><path d="M-5.491 12.306c0 .821.32 1.591.898 2.17l1.088 1.083a7.614 7.614 0 0 0 5.422 2.245 7.617 7.617 0 0 0 5.42-2.245l7.639-7.639a16.741 16.741 0 0 0 10.79 3.903h.008a16.79 16.79 0 0 0 11.941-4.955 1.535 1.535 0 0 0-2.17-2.168 13.74 13.74 0 0 1-9.773 4.056h-.004a13.705 13.705 0 0 1-9.754-4.041 1.534 1.534 0 0 0-2.168 0L5.17 13.39c-1.736 1.736-4.768 1.736-6.506 0l-1.084-1.086L16.013-6.128c1.719-1.718 3.352-1.718 5.422-1.718 2.213 0 4.971 0 7.59-2.619l4.338-4.338a1.534 1.534 0 0 0-2.17-2.168l-4.338 4.338c-1.719 1.718-3.354 1.718-5.42 1.718-2.215 0-4.973 0-7.59 2.619L-4.588 10.137a3.04 3.04 0 0 0-.903 2.169zM-16.206-13.131a3.07 3.07 0 0 0 3.066-3.067 3.07 3.07 0 0 0-3.066-3.066 3.07 3.07 0 0 0-3.066 3.066 3.071 3.071 0 0 0 3.066 3.067zM-1.336-8.295l4.338 4.336c.297.301.689.45 1.084.45A1.535 1.535 0 0 0 5.17-6.128L.832-10.465a1.533 1.533 0 1 0-2.168 2.17zM48.201-19.265a3.073 3.073 0 0 0 3.068-3.068 3.073 3.073 0 0 0-3.068-3.066 3.072 3.072 0 0 0-3.066 3.066 3.073 3.073 0 0 0 3.066 3.068zM51.719 2.654c-2.49 2.492-3.348 6.551-4.176 10.476-.73 3.485-1.49 7.089-3.336 8.937l-2.172 2.168a1.537 1.537 0 0 0 0 2.167c.303.304.695.449 1.088.449.389 0 .781-.148 1.084-.449l2.168-2.167c2.488-2.491 3.344-6.549 4.17-10.473.736-3.487 1.496-7.093 3.342-8.94a1.527 1.527 0 0 0 0-2.168 1.53 1.53 0 0 0-2.168 0z"/><path d="M61.555 2.654L36.57-22.333l5.049-5.048c.6-.601.6-1.57 0-2.169a1.53 1.53 0 0 0-2.168 0l-6.133 6.134a1.528 1.528 0 0 0 0 2.169L59.387 4.822c.299.299.691.449 1.084.449s.787-.15 1.084-.449c.601-.6.601-1.569 0-2.168zM26.855 15.559a1.534 1.534 0 1 0-2.168 2.172l16.264 16.264a3.07 3.07 0 0 1 0 4.336 3.068 3.068 0 0 1-4.336 0L20.352 22.066a1.534 1.534 0 0 0-2.17 2.168l20.602 20.602a3.073 3.073 0 0 1 0 4.338 3.071 3.071 0 0 1-4.336 0L14.929 29.656a1.532 1.532 0 0 0-2.168 0 1.53 1.53 0 0 0 0 2.17l17.348 17.348a3.07 3.07 0 0 1 0 4.335c-1.16 1.163-3.176 1.163-4.338 0l-2.168-2.167H23.6L9.503 37.246a1.53 1.53 0 0 0-2.166 0 1.53 1.53 0 0 0 0 2.168l14.098 14.095c.578.582.898 1.351.898 2.174 0 .817-.32 1.589-.898 2.168a3.074 3.074 0 0 1-4.338-.003L-8.985 31.79c-3.977-3.979-4.84-8.988-5.604-13.413-.639-3.722-1.246-7.237-3.6-9.589a1.529 1.529 0 0 0-2.168 0c-.6.6-.6 1.568 0 2.167 1.664 1.664 2.166 4.573 2.746 7.944.799 4.63 1.793 10.395 6.457 15.059l26.082 26.06a6.109 6.109 0 0 0 4.336 1.795 6.136 6.136 0 0 0 6.02-4.94c2.25 1.084 5.176.626 6.992-1.193a6.104 6.104 0 0 0 1.682-3.145 6.145 6.145 0 0 0 6.992-1.193 6.138 6.138 0 0 0 0-8.674l-.58-.581a6.142 6.142 0 0 0 2.752-1.587c2.391-2.393 2.391-6.287 0-8.674L26.855 15.559zM-1.317-17.282l-9.201-9.2a1.534 1.534 0 1 0-2.172 2.168l8.117 8.116-24.984 24.986a1.533 1.533 0 1 0 2.172 2.167l26.068-26.068c.598-.6.598-1.57 0-2.169zM7.71 58.659c-.854.449-2.311.5-3.625-.809-1.314-1.317-1.303-2.848-.879-3.51a1.534 1.534 0 0 0-2.375-1.915 3.075 3.075 0 0 1-4.34 0 3.074 3.074 0 0 1 0-4.336 1.51 1.51 0 0 0 .449-1.084c0-.393-.148-.786-.449-1.084a1.529 1.529 0 0 0-2.168 0l-1.082 1.084a3.068 3.068 0 0 1-4.336 0 3.07 3.07 0 0 1 0-4.338l1.084-1.084c.545-.545.6-1.409.129-2.019a1.531 1.531 0 0 0-1.982-.394c-.834.48-2.303.424-3.568-.842-1.346-1.346-1.34-2.836-.908-3.465a1.533 1.533 0 1 0-2.522-1.741c-1.24 1.797-1.207 4.908 1.262 7.373.971.972 2.029 1.553 3.074 1.831a6.039 6.039 0 0 0-.537 2.508c0 1.637.639 3.181 1.799 4.338a6.144 6.144 0 0 0 5.816 1.614 6.121 6.121 0 0 0 1.771 3.808 6.144 6.144 0 0 0 5.623 1.66c.189 1.269.809 2.6 1.971 3.762C3.332 61.434 4.99 62 6.503 62c.969 0 1.881-.232 2.631-.626a1.53 1.53 0 0 0 .645-2.069 1.536 1.536 0 0 0-2.069-.646z"/></g></svg>
