<svg version="1.1" id="Capa_1" xmlns="http://www.w3.org/2000/svg" xmlns:xlink="http://www.w3.org/1999/xlink" x="0px" y="0px" width="32px" height="32px" viewBox="290 290 32 32" enable-background="new 290 290 32 32" xml:space="preserve"><path fill="#717E88" d="M306 290c-8.836 0-16 7.164-16 16s7.164 16 16 16 16-7.164 16-16-7.164-16-16-16zm6.85 12.339c.008.16.01.32.01.48 0 4.908-3.557 10.568-10.058 10.564a9.508 9.508 0 0 1-5.417-1.697c.276.035.559.055.844.055a6.83 6.83 0 0 0 4.39-1.6c-1.548-.036-2.853-1.13-3.302-2.631a3.32 3.32 0 0 0 1.596-.054c-1.618-.358-2.836-1.893-2.836-3.721v-.048a3.38 3.38 0 0 0 1.602.488c-.947-.685-1.571-1.849-1.571-3.158 0-.692.174-1.338.479-1.891 1.744 2.305 4.349 3.835 7.286 4.026a3.948 3.948 0 0 1-.092-.854c0-2.067 1.583-3.716 3.535-3.684a3.52 3.52 0 0 1 2.581 1.217 6.775 6.775 0 0 0 2.244-.865 3.625 3.625 0 0 1-1.555 2.03 6.735 6.735 0 0 0 2.029-.555 7.265 7.265 0 0 1-1.765 1.898z"/></svg>
