<svg version="1.1" id="Layer_2" xmlns="http://www.w3.org/2000/svg" xmlns:xlink="http://www.w3.org/1999/xlink" x="0px" y="0px" width="16px" height="16px" viewBox="87 87 16 16" enable-background="new 87 87 16 16" xml:space="preserve"><path fill="#57BB63" d="M100.755 89.245C99.308 87.797 97.383 87 95.335 87s-3.972.797-5.419 2.245a7.615 7.615 0 0 0-2.245 5.42c0 1.296.329 2.572.952 3.7L87 103l4.635-1.623a7.662 7.662 0 0 0 3.7.952 7.615 7.615 0 0 0 5.419-2.245c1.448-1.447 2.245-3.372 2.245-5.419s-.796-3.973-2.244-5.42zm-5.42 12.146a6.718 6.718 0 0 1-3.415-.931l-.188-.11-3.203 1.121 1.121-3.203-.111-.188a6.716 6.716 0 0 1-.931-3.415 6.734 6.734 0 0 1 6.726-6.726 6.733 6.733 0 0 1 6.726 6.726c.002 3.708-3.015 6.726-6.725 6.726z"/><path fill="#57BB63" d="M99.636 96.6c-.054-.087-.196-.141-.409-.246s-1.262-.617-1.457-.688-.338-.106-.479.105c-.143.211-.551.688-.676.828-.125.143-.249.16-.463.055-.213-.106-.899-.33-1.714-1.051-.633-.561-1.062-1.253-1.186-1.465-.125-.211-.013-.326.093-.431.096-.095.213-.247.32-.371.107-.124.143-.211.213-.353.071-.141.036-.265-.018-.371-.053-.106-.479-1.147-.657-1.571-.178-.423-.355-.353-.479-.353s-.267-.018-.409-.018c-.143 0-.374.053-.569.265S91 91.661 91 92.701c0 1.042.764 2.047.871 2.188.106.141 1.475 2.347 3.643 3.195 2.168.846 2.168.563 2.559.528.391-.036 1.261-.512 1.439-1.006.177-.494.177-.918.124-1.006z"/></svg>
