<svg version="1.1" id="Capa_1" xmlns="http://www.w3.org/2000/svg" xmlns:xlink="http://www.w3.org/1999/xlink" x="0px" y="0px" width="32px" height="32px" viewBox="79 79 32 32" enable-background="new 79 79 32 32" xml:space="preserve"><g fill="#717E88"><path d="M93.17 98.66L98.661 95l-5.491-3.661z"/><path d="M95 79c-8.836 0-16 7.164-16 16s7.164 16 16 16 16-7.164 16-16-7.164-16-16-16zm8.996 19.278c-.098 1.219-1.024 2.774-2.318 3-4.146.321-9.059.282-13.353 0-1.34-.169-2.22-1.783-2.319-3-.209-2.56-.209-4.016 0-6.575.099-1.217 1.001-2.822 2.319-2.969 4.245-.357 9.185-.28 13.353 0 1.49.055 2.221 1.591 2.318 2.81.205 2.56.205 4.175 0 6.734z"/></g></svg>
