<?xml version="1.0" encoding="utf-8"?>
<!-- Generator: Adobe Illustrator 15.0.0, SVG Export Plug-In . SVG Version: 6.00 Build 0)  -->
<!DOCTYPE svg PUBLIC "-//W3C//DTD SVG 1.1//EN" "http://www.w3.org/Graphics/SVG/1.1/DTD/svg11.dtd">
<svg version="1.1" id="Layer_1" xmlns="http://www.w3.org/2000/svg" xmlns:xlink="http://www.w3.org/1999/xlink" x="0px" y="0px"
	 width="28px" height="22px" viewBox="0 3 28 22" enable-background="new 0 3 28 22" xml:space="preserve">
<path fill="#685F52" d="M28,4c0,0.552-0.447,1-1,1H1C0.448,5,0,4.552,0,4l0,0c0-0.552,0.448-1,1-1h26C27.553,3,28,3.448,28,4L28,4z"
	/>
<path fill="#685F52" d="M28,24c0,0.553-0.447,1-1,1H1c-0.552,0-1-0.447-1-1l0,0c0-0.553,0.448-1,1-1h26C27.553,23,28,23.447,28,24
	L28,24z"/>
<path fill="#685F52" d="M28,14c0,0.553-0.447,1-1,1H1c-0.552,0-1-0.447-1-1l0,0c0-0.553,0.448-1,1-1h26C27.553,13,28,13.447,28,14
	L28,14z"/>
</svg>
