<?xml version="1.0" encoding="utf-8"?>
<!-- Generator: Adobe Illustrator 15.0.0, SVG Export Plug-In . SVG Version: 6.00 Build 0)  -->
<!DOCTYPE svg PUBLIC "-//W3C//DTD SVG 1.1//EN" "http://www.w3.org/Graphics/SVG/1.1/DTD/svg11.dtd">
<svg version="1.1" id="Layer_1" xmlns="http://www.w3.org/2000/svg" xmlns:xlink="http://www.w3.org/1999/xlink" x="0px" y="0px"
	 width="28px" height="28px" viewBox="0 0 28 28" enable-background="new 0 0 28 28" xml:space="preserve">
<g>
	<path fill="#685F52" d="M1.5,3C0.672,3,0,2.328,0,1.5S0.672,0,1.5,0h25C27.328,0,28,0.672,28,1.5S27.328,3,26.5,3H1.5z"/>
	<path fill="#685F52" d="M1.5,16.002c-0.828,0-1.5-0.672-1.5-1.5s0.672-1.5,1.5-1.5h25c0.828,0,1.5,0.672,1.5,1.5
		s-0.672,1.5-1.5,1.5H1.5z"/>
	<path fill="#685F52" d="M1.5,28C0.672,28,0,27.328,0,26.5S0.672,25,1.5,25h25c0.828,0,1.5,0.672,1.5,1.5S27.328,28,26.5,28H1.5z"/>
</g>
</svg>
